<svg xmlns="http://www.w3.org/2000/svg" viewBox="0 0 543 438" fill="#6d28d9">
  <g transform="translate(0,438) scale(0.1,-0.1)">
    <path d="M4910 4373 c-71 -12 -181 -48 -227 -74 -75 -43 -147 -121 -187 -203
-39 -82 -52 -135 -65 -263 -6 -68 -14 -99 -30 -122 -26 -36 -33 -38 -166 -50
l-99 -9 -36 28 c-84 67 -193 97 -296 80 -93 -15 -156 -54 -216 -132 -11 -13
-46 -18 -198 -28 -128 -7 -186 -8 -188 0 -16 48 -55 100 -96 127 -59 40 -101
53 -192 60 -84 6 -158 -8 -228 -45 -59 -32 -96 -78 -111 -140 l-12 -47 -109
-6 c-60 -4 -157 -8 -216 -10 l-107 -4 -69 85 c-49 61 -92 101 -153 142 -161
110 -289 143 -518 135 -120 -4 -162 -9 -236 -31 -111 -34 -200 -75 -285 -131
-65 -44 -167 -138 -212 -195 l-25 -31 -259 -10 c-306 -12 -318 -15 -347 -94
-37 -99 -21 -265 31 -305 22 -18 41 -20 176 -20 89 0 156 -4 162 -10 7 -7 6
-35 -4 -88 -9 -55 -12 -133 -9 -277 7 -279 35 -429 173 -905 83 -287 91 -322
114 -477 32 -221 89 -362 186 -463 63 -66 150 -114 240 -132 58 -12 65 -17
117 -78 134 -158 369 -335 588 -445 238 -120 496 -186 784 -202 197 -10 504
47 702 130 304 128 573 349 789 647 243 335 374 735 406 1237 28 445 -34 857
-184 1220 -12 29 -20 55 -17 57 6 6 399 47 943 97 149 14 175 28 196 103 16
57 9 150 -14 198 -32 66 -30 66 -511 23 -270 -24 -395 -29 -395 -17 0 27 62
75 156 121 55 28 122 69 147 91 64 57 121 146 151 237 22 68 46 181 46 221 0
12 -36 14 -90 5z m-2140 -833 c22 -12 50 -96 50 -151 0 -50 -19 -137 -37 -172
-9 -17 -21 -27 -31 -25 -14 3 -18 21 -23 113 -3 61 -9 133 -13 161 -6 41 -4
54 9 68 19 19 21 19 45 6z m187 -17 c27 -41 24 -199 -6 -275 -17 -43 -27 -58
-42 -58 -18 0 -19 9 -21 143 -2 176 0 199 15 209 21 14 36 9 54 -19z m149 -4
c16 -18 19 -36 19 -113 -1 -77 -5 -100 -28 -149 -42 -92 -52 -74 -55 96 -3
147 4 187 32 187 7 0 21 -9 32 -21z m-1269 -60 c91 -45 195 -149 246 -245 33
-63 46 -104 33 -104 -2 0 -30 25 -61 55 -68 65 -125 94 -198 102 -40 4 -63 1
-91 -12 -70 -33 -109 -127 -92 -220 4 -20 23 -53 42 -75 36 -39 60 -50 194
-84 79 -21 139 -60 163 -106 36 -69 7 -173 -75 -266 -78 -89 -251 -182 -398
-215 -105 -23 -280 -25 -379 -4 -132 27 -251 92 -291 157 -23 39 -26 98 -6
137 23 44 96 105 202 166 153 89 174 115 174 212 0 74 -26 132 -76 169 -34 27
-44 29 -118 29 -69 -1 -89 -5 -136 -29 -78 -41 -174 -138 -228 -229 -25 -43
-50 -81 -55 -84 -17 -10 2 143 28 226 34 105 88 192 167 266 113 107 273 169
389 151 26 -4 73 -22 104 -42 57 -34 58 -34 72 -14 19 28 93 76 134 89 19 6
69 9 111 7 62 -3 90 -10 145 -37z m1997 -238 c9 -52 16 -150 16 -217 0 -350
-107 -723 -286 -995 -46 -70 -133 -173 -140 -166 -3 2 17 47 44 98 189 367
296 805 309 1263 l6 199 17 -44 c10 -24 25 -86 34 -138z m-367 -7 c9 -25 -24
-165 -79 -331 -89 -271 -231 -527 -399 -721 -39 -46 -73 -81 -76 -78 -3 2 18
64 45 138 28 73 64 180 81 238 50 174 90 437 92 614 1 39 4 82 8 96 8 27 18
29 219 49 48 5 91 9 95 10 4 0 10 -6 14 -15z m-877 -83 c0 -119 -80 -375 -156
-501 -74 -123 -211 -277 -229 -258 -3 3 -1 18 6 34 6 16 22 81 36 144 29 136
41 381 25 500 -6 41 -8 78 -3 83 6 6 173 21 284 26 34 1 37 -1 37 -28z m-695
-85 c51 -22 44 -37 -12 -29 -27 3 -59 9 -73 13 l-25 8 25 10 c34 15 45 14 85
-2z m-745 -125 c0 -10 -95 -49 -144 -58 -42 -9 -30 14 24 43 44 24 120 33 120
15z m1460 -723 c72 -37 100 -81 115 -184 40 -258 67 -427 80 -499 15 -77 50
-299 76 -472 10 -65 10 -90 -1 -127 -15 -55 -70 -110 -127 -125 -36 -11 -173
-35 -668 -117 -115 -20 -244 -38 -285 -41 -64 -5 -82 -2 -117 15 -47 24 -80
66 -89 111 -4 17 -12 31 -19 31 -7 0 -37 -11 -66 -24 -61 -28 -187 -56 -250
-56 -23 0 -40 2 -37 5 3 3 30 12 61 20 89 23 255 92 339 140 43 25 81 45 85
45 4 0 -11 -18 -32 -40 l-39 -40 12 -48 c17 -65 59 -102 115 -102 24 0 164 21
312 46 149 25 361 60 473 78 198 32 204 34 237 66 42 41 50 78 36 162 -6 34
-22 131 -36 213 -13 83 -47 294 -75 470 -28 176 -56 332 -62 348 -6 15 -24 39
-40 52 -47 40 -37 41 -653 -60 -115 -19 -254 -41 -308 -50 -55 -8 -107 -20
-117 -25 -25 -13 -60 -72 -60 -101 0 -13 14 -115 32 -227 l32 -203 48 -21 c26
-11 48 -24 48 -29 0 -4 -39 -5 -88 -2 -101 7 -175 -6 -244 -42 -36 -19 -63
-25 -112 -25 -36 0 -67 4 -70 9 -5 8 82 48 203 92 30 11 76 23 103 26 26 3 48
11 48 17 -1 6 -5 31 -10 56 -21 100 -50 306 -50 350 0 34 8 58 29 91 35 56 90
82 211 98 47 7 120 18 163 26 43 8 211 35 375 60 163 25 302 47 307 49 26 11
75 4 115 -16z m-130 -220 c43 -47 54 -167 19 -212 -27 -34 -77 -36 -106 -3
-25 27 -43 86 -43 145 0 32 6 49 25 67 31 32 77 33 105 3z m-256 -40 c3 -13
12 -66 20 -118 13 -81 14 -97 2 -109 -23 -22 -34 -5 -46 72 -17 107 -18 109
-40 94 -15 -9 -22 -9 -32 1 -9 9 -5 19 22 47 39 40 67 45 74 13z m-213 -48
c24 -33 41 -141 28 -179 -10 -28 -44 -51 -78 -51 -18 0 -71 42 -71 57 0 4 -4
34 -10 66 -15 93 13 141 79 135 23 -2 40 -11 52 -28z m-254 -66 c7 -32 15 -89
19 -126 6 -65 6 -68 -15 -68 -22 0 -22 -1 -42 112 -10 61 -13 67 -29 58 -28
-15 -40 -12 -40 9 0 22 66 84 83 78 7 -2 17 -30 24 -63z m779 -299 c7 -44 15
-97 19 -117 6 -30 4 -39 -10 -44 -25 -10 -35 6 -46 77 -15 97 -17 101 -39 86
-15 -9 -22 -9 -32 1 -9 9 -5 19 22 47 22 22 42 35 55 33 17 -3 21 -15 31 -83z
m-236 45 c27 -15 40 -42 51 -110 14 -89 -12 -139 -74 -140 -44 0 -73 37 -86
112 -12 71 -4 111 27 134 21 16 57 18 82 4z m-233 -95 c6 -33 15 -89 19 -123
6 -63 6 -64 -17 -60 -22 3 -25 11 -37 83 -7 44 -15 81 -17 84 -3 2 -11 -2 -19
-8 -16 -14 -36 -7 -36 11 0 6 12 26 26 45 18 24 33 33 47 31 18 -2 24 -14 34
-63z m-222 8 c23 -22 33 -51 40 -120 6 -53 5 -62 -16 -86 -34 -37 -69 -43
-102 -17 -31 24 -47 74 -47 145 0 68 20 95 70 95 23 0 45 -7 55 -17z m-157
-185 c5 -25 -50 -55 -135 -74 -100 -22 -170 -5 -110 27 40 22 191 68 217 66
15 -1 26 -9 28 -19z m924 -85 c17 -16 38 -93 38 -143 0 -71 -49 -109 -108 -85
-25 11 -34 23 -46 66 -25 83 -21 125 14 161 25 24 36 29 58 23 15 -3 35 -13
44 -22z m-258 -22 c3 -5 13 -59 23 -120 13 -85 14 -114 5 -123 -21 -21 -36 8
-49 88 -6 42 -14 78 -17 82 -4 3 -12 0 -18 -6 -7 -7 -18 -12 -25 -12 -23 0
-14 33 19 67 32 33 52 41 62 24z m-630 -16 c13 -35 -108 -92 -205 -97 -43 -2
-54 0 -57 14 -2 12 21 26 100 57 110 43 152 50 162 26z m405 -25 c27 -14 51
-83 51 -147 0 -44 -5 -62 -22 -80 -28 -30 -77 -31 -105 0 -25 26 -47 134 -38
178 11 49 68 74 114 49z m-233 -95 c23 -113 27 -177 13 -186 -16 -10 -39 7
-39 29 0 8 -5 44 -11 78 -11 62 -11 63 -39 58 -41 -9 -44 10 -9 51 47 54 70
46 85 -30z m-171 -25 c0 -20 -11 -31 -49 -51 -81 -44 -205 -60 -193 -25 5 14
207 106 227 103 9 -1 15 -13 15 -27z M1475 2915 c-45 -16 -91 -62 -101 -101
-9 -36 18 -89 58 -115 27 -16 46 -19 109 -17 65 3 81 7 112 31 62 47 85 117
52 163 -35 51 -145 69 -230 39z M1755 2671 c-83 -73 -146 -95 -270 -96 -84 0
-107 4 -145 22 -25 12 -57 32 -71 44 -22 17 -30 19 -48 10 -28 -15 -27 -52 2
-79 12 -11 49 -33 82 -48 48 -23 78 -29 152 -32 80 -4 105 -1 177 22 135 42
249 138 219 184 -18 30 -40 24 -98 -27z M2403 1935 c-6 -16 3 -103 13 -130 8
-20 50 -19 58 0 7 19 -12 115 -26 133 -14 17 -37 15 -45 -3z M1931 1866 c-13
-15 -7 -88 10 -133 10 -27 44 -31 53 -6 15 38 -17 153 -43 153 -5 0 -14 -6
-20 -14z M2235 1507 c-4 -13 0 -48 7 -78 10 -43 18 -55 35 -57 29 -4 35 20 20
93 -10 50 -16 61 -34 63 -17 2 -24 -3 -28 -21z M1775 1443 c-11 -10 -14 -25
-11 -44 4 -16 9 -42 12 -58 7 -41 29 -58 50 -40 13 10 15 24 10 65 -3 29 -9
59 -12 67 -9 23 -32 28 -49 10z M2543 1183 c-16 -6 -17 -64 -3 -115 10 -36 32
-54 52 -42 14 9 4 130 -12 149 -13 16 -17 17 -37 8z M2065 1100 c-7 -12 5
-109 17 -132 5 -10 17 -18 28 -18 10 0 20 8 22 18 4 19 -10 120 -18 134 -7 11
-41 10 -49 -2z"/>
  </g>
</svg>