<svg xmlns="http://www.w3.org/2000/svg" viewBox="0 0 645 503" fill="#6d28d9">
  <g transform="translate(0,503) scale(0.1,-0.1)">
    <path d="M5825 5015 c-134 -24 -252 -89 -353 -193 -48 -49 -75 -90 -112 -166
-45 -93 -90 -240 -90 -291 0 -36 -31 -115 -49 -124 -9 -5 -64 -12 -124 -16
l-107 -7 -49 45 c-164 153 -439 168 -600 31 -19 -15 -49 -51 -67 -80 l-33 -51
-232 -18 c-134 -10 -234 -14 -236 -9 -27 75 -111 147 -210 180 -80 26 -276 27
-349 1 -113 -39 -198 -119 -210 -198 -6 -37 -7 -38 -58 -43 -81 -9 -427 -28
-430 -24 -25 39 -98 129 -138 169 -302 302 -801 360 -1233 142 -113 -57 -255
-173 -351 -286 l-49 -57 -324 1 c-307 1 -324 0 -350 -18 -44 -34 -64 -103 -65
-228 0 -92 3 -118 21 -157 12 -25 32 -53 45 -61 26 -18 109 -25 289 -26 l125
-1 -12 -72 c-42 -246 -23 -521 67 -933 31 -144 167 -684 221 -880 76 -276 151
-492 220 -630 48 -95 136 -222 206 -297 139 -147 334 -238 510 -238 108 0 318
73 464 161 71 43 207 163 197 174 -3 3 -30 -8 -60 -24 -60 -32 -148 -55 -194
-49 -26 3 -17 9 75 55 110 54 165 98 155 126 -10 25 -29 26 -90 6 -71 -23
-176 -35 -200 -22 -15 9 -2 16 66 38 109 37 201 78 218 98 17 22 7 64 -18 72
-10 3 -52 -3 -92 -15 -74 -20 -223 -28 -233 -12 -3 5 44 23 104 40 59 18 129
41 154 52 38 16 46 24 46 45 0 57 -113 70 -310 34 -140 -25 -300 -27 -384 -4
-103 27 -176 73 -256 159 l-35 38 64 -41 c138 -88 295 -115 591 -99 214 11
275 6 347 -27 56 -25 71 -51 59 -99 -4 -18 -1 -29 12 -38 45 -32 53 -83 22
-141 -11 -20 -15 -37 -10 -37 19 0 50 -65 50 -104 0 -22 -9 -59 -21 -83 -23
-48 -118 -134 -217 -196 -34 -22 -61 -42 -58 -44 4 -5 29 -2 356 47 634 95
804 122 825 132 13 6 29 24 36 39 13 33 15 17 -56 529 -25 179 -72 520 -105
759 -62 449 -64 456 -113 482 -12 7 -104 -3 -295 -31 -152 -22 -477 -70 -721
-105 -500 -73 -492 -71 -490 -149 1 -23 4 -52 8 -65 6 -21 13 -24 55 -25 36
-1 52 -6 60 -19 9 -15 7 -22 -13 -38 -13 -10 -37 -19 -53 -19 l-30 0 7 -62 c4
-35 9 -66 12 -71 2 -4 25 -6 50 -5 44 1 62 -10 63 -39 0 -22 -32 -43 -67 -43
l-35 0 7 -42 c16 -106 12 -101 59 -94 49 8 70 -8 64 -46 -2 -18 -12 -25 -44
-33 -23 -5 -43 -13 -44 -18 -1 -4 0 -34 4 -67 l7 -59 52 -3 c47 -3 52 -6 55
-27 5 -30 -20 -51 -60 -51 -23 0 -28 -4 -28 -25 0 -21 -5 -25 -29 -25 -16 0
-36 6 -44 14 -8 8 -34 16 -58 18 -37 3 -45 7 -47 26 -5 32 15 52 51 52 l30 0
-7 53 c-3 28 -6 60 -6 69 0 13 -11 18 -52 20 -48 3 -53 6 -56 27 -5 30 21 51
61 51 29 0 29 0 22 48 -13 92 -14 93 -54 91 -46 -3 -61 6 -61 36 0 27 26 45
65 45 23 0 26 3 22 23 -3 12 -9 44 -12 70 l-7 48 -39 -3 c-45 -2 -62 10 -57
43 2 18 12 26 40 33 l38 9 -2 76 c-2 60 2 83 17 108 34 58 74 69 415 118 173
24 486 70 695 100 209 31 399 56 423 56 48 1 95 -23 124 -62 20 -26 32 -101
143 -904 19 -143 54 -390 76 -550 23 -167 38 -303 34 -322 -8 -46 -59 -101
-103 -112 -34 -9 -440 -71 -990 -151 -200 -30 -218 -31 -300 -19 -101 15 -192
16 -217 1 -16 -8 -11 -15 36 -52 145 -116 387 -249 564 -310 233 -81 464 -120
710 -120 334 0 660 75 960 220 436 211 755 535 980 995 142 289 224 583 271
965 21 166 24 576 6 735 -29 251 -86 501 -171 743 l-49 141 52 6 c28 3 272 26
541 51 693 63 644 57 677 93 15 16 32 47 37 68 26 92 3 228 -45 277 -35 34
-44 34 -555 -9 -462 -39 -479 -40 -479 -23 0 6 11 26 25 43 16 22 63 52 147
93 140 69 218 127 284 210 80 101 142 247 159 375 l6 47 -43 -1 c-24 0 -74 -7
-113 -14z m-2543 -986 c30 -40 44 -143 31 -236 -12 -94 -31 -138 -58 -138 -16
0 -21 9 -27 45 -13 89 -31 329 -24 345 9 24 55 15 78 -16z m184 23 c35 -23 49
-111 35 -217 -20 -143 -51 -204 -87 -174 -11 9 -14 50 -14 186 0 101 4 182 10
194 11 19 36 25 56 11z m-1404 -13 c120 -26 247 -104 328 -203 48 -58 110
-172 125 -226 5 -21 0 -18 -30 18 -37 43 -143 123 -180 136 -98 35 -197 24
-250 -29 -92 -93 -80 -282 23 -350 21 -13 82 -35 139 -48 125 -30 188 -60 227
-110 28 -35 31 -46 31 -110 0 -100 -26 -150 -134 -257 -103 -101 -193 -155
-341 -204 -337 -109 -743 -43 -879 144 -41 57 -47 98 -20 161 28 64 95 120
250 208 184 105 217 147 206 262 -6 72 -49 153 -97 185 -83 54 -181 51 -309
-12 -102 -50 -218 -167 -285 -287 -27 -48 -50 -86 -52 -84 -10 9 19 227 37
281 77 231 281 422 505 471 123 28 225 10 305 -55 l36 -28 41 43 c84 89 195
121 324 94z m1578 1 c41 -22 52 -130 24 -251 -16 -72 -51 -128 -72 -115 -8 5
-12 58 -12 176 0 140 3 171 16 184 18 19 20 19 44 6z m891 -87 c46 -120 74
-350 65 -523 -29 -503 -215 -988 -496 -1293 l-48 -52 97 195 c148 299 237 548
295 830 44 215 57 344 63 613 3 141 7 257 10 257 2 0 8 -12 14 -27z m-411
-256 c0 -23 -66 -257 -103 -362 -79 -231 -193 -466 -307 -638 -64 -95 -232
-302 -273 -336 -12 -9 -2 23 27 93 142 338 215 669 232 1050 4 78 10 148 15
156 7 14 103 26 392 49 9 0 17 -5 17 -12z m-1075 -119 c-39 -320 -156 -572
-358 -770 -49 -49 -93 -88 -97 -88 -5 0 2 31 14 68 29 84 62 231 76 335 12 91
12 338 0 417 -4 30 -5 58 -1 62 6 8 201 24 309 27 l64 1 -7 -52z m-751 -63
c16 -11 23 -21 17 -23 -19 -6 -181 19 -181 28 0 26 123 22 164 -5z m-923 -125
c11 0 18 -4 15 -9 -7 -11 -157 -65 -205 -75 -29 -5 -32 -4 -21 10 32 38 145
88 178 78 8 -2 23 -4 33 -4z m929 -1129 l14 -32 56 7 c97 13 105 12 105 -16 0
-26 2 -25 -117 -45 -32 -5 -38 -10 -38 -31 0 -24 2 -25 48 -19 26 4 54 9 63
11 20 5 43 -21 36 -40 -3 -7 -34 -19 -71 -26 -61 -11 -66 -14 -60 -34 4 -11 8
-23 10 -25 2 -3 39 1 82 7 70 11 78 11 90 -5 20 -27 -3 -41 -91 -54 l-78 -12
3 -46 c3 -43 1 -46 -22 -46 -20 0 -26 7 -33 40 -6 22 -10 41 -11 42 0 0 -36
-5 -79 -11 -66 -11 -81 -10 -92 1 -8 7 -12 20 -9 28 4 8 7 15 8 16 0 0 37 6
81 12 76 11 80 13 80 37 0 27 -6 28 -89 19 -29 -3 -41 0 -50 13 -15 25 0 36
64 45 51 8 55 10 58 36 l3 28 -48 -7 c-26 -5 -64 -8 -83 -9 -31 0 -35 3 -35
25 0 23 5 26 75 37 41 6 76 12 76 12 1 1 -1 12 -4 26 -5 27 14 58 32 52 6 -2
18 -18 26 -36z m777 -387 c3 -8 2 -19 -3 -24 -5 -5 -72 -18 -149 -30 -77 -11
-145 -22 -151 -24 -7 -3 -7 -27 0 -80 9 -75 10 -76 38 -76 15 0 85 9 154 20
69 11 130 18 135 15 15 -10 10 -34 -8 -43 -10 -5 -72 -17 -138 -26 -180 -26
-163 -15 -151 -101 6 -40 13 -76 16 -78 3 -3 70 5 151 17 80 12 150 21 157 18
20 -6 14 -32 -10 -42 -13 -5 -70 -16 -128 -25 -58 -8 -118 -18 -133 -21 l-29
-6 7 -71 c4 -40 10 -75 14 -79 3 -4 62 2 131 12 165 25 190 26 190 1 0 -24 -6
-26 -145 -46 -60 -9 -123 -19 -139 -22 l-28 -5 7 -72 c3 -39 10 -74 14 -78 3
-4 67 1 140 12 174 26 183 26 179 -2 -3 -24 12 -21 -276 -63 -34 -5 -42 -10
-38 -23 3 -9 8 -43 12 -74 5 -49 4 -59 -11 -64 -25 -10 -35 6 -46 77 -6 35
-12 65 -13 67 -2 1 -62 -7 -134 -18 -72 -11 -142 -20 -155 -20 -23 0 -45 26
-32 38 3 3 74 16 157 29 84 13 154 25 156 27 5 6 -10 133 -17 145 -5 8 -51 5
-160 -11 -133 -20 -153 -21 -161 -8 -5 8 -8 20 -7 25 2 6 73 20 157 33 85 12
156 24 158 27 5 5 -14 145 -21 152 -3 2 -85 -8 -183 -22 l-177 -27 -46 23
c-25 12 -49 27 -52 32 -4 5 -10 37 -14 70 -3 34 -8 64 -10 68 -3 3 -57 -2
-122 -12 -65 -10 -133 -19 -151 -19 -29 0 -33 3 -30 23 3 20 13 24 143 44 77
12 142 22 145 22 3 1 1 37 -4 81 -9 71 -12 80 -30 80 -12 0 -77 -9 -145 -20
-112 -18 -126 -19 -140 -5 -12 12 -13 17 -3 27 12 12 1007 164 1090 167 21 1
35 -4 39 -15z M1769 3365 c-56 -18 -117 -77 -125 -122 -14 -72 59 -146 158
-159 59 -8 142 16 190 56 20 17 44 49 53 74 16 43 16 47 -1 82 -31 61 -63 79
-152 81 -47 2 -95 -3 -123 -12z M2116 3107 c-87 -91 -202 -139 -341 -141 -108
-1 -174 19 -233 69 -44 38 -72 44 -96 19 -24 -24 -19 -62 11 -90 39 -36 138
-80 211 -95 166 -32 386 35 510 154 47 46 56 89 23 107 -32 17 -52 12 -85 -23z
M2502 1760 c-101 -16 -186 -31 -189 -33 -7 -8 7 -131 17 -147 7 -11 45 -8 205
15 l197 29 -6 55 c-10 87 -17 111 -29 110 -7 -1 -94 -14 -195 -29z M2511 1542
l-173 -25 6 -51 c13 -104 17 -117 35 -112 9 3 98 17 199 32 142 22 182 31 182
42 0 9 -5 44 -11 79 -13 75 10 71 -238 35z"/>
  </g>
</svg>