<svg xmlns="http://www.w3.org/2000/svg" viewBox="0 0 612 430" fill="#6d28d9">
  <g transform="translate(0,430) scale(0.1,-0.1)">
    <path d="M5515 4293 c-68 -15 -189 -60 -241 -89 -135 -74 -223 -205 -274 -408
-38 -152 -48 -175 -73 -180 -12 -3 -71 -7 -132 -9 l-110 -5 -40 50 c-47 59
-112 108 -191 146 -53 24 -70 27 -164 26 -121 0 -190 -21 -257 -78 -40 -35
-78 -98 -88 -148 -5 -24 -10 -27 -67 -32 -35 -3 -114 -8 -176 -11 -101 -5
-113 -4 -119 12 -44 118 -186 193 -366 193 -203 0 -339 -71 -366 -190 -5 -23
-12 -44 -14 -47 -7 -6 -248 -21 -384 -24 l-105 -2 -46 54 c-112 130 -241 231
-374 294 -247 117 -590 110 -888 -17 -112 -48 -270 -179 -381 -315 l-26 -31
-275 -4 c-308 -3 -315 -5 -340 -75 -17 -49 -17 -302 0 -360 21 -69 32 -73 230
-73 l174 0 -6 -22 c-14 -47 -19 -413 -7 -532 13 -130 46 -299 87 -441 94 -325
306 -742 503 -992 99 -126 310 -340 431 -437 331 -265 713 -433 1145 -505 148
-25 414 -43 540 -37 501 23 905 169 1280 461 111 87 297 282 375 393 117 167
218 370 273 552 14 47 38 146 53 220 23 116 28 167 32 359 3 141 0 259 -8 320
-32 259 -110 551 -210 787 -46 111 -47 114 -26 118 11 3 127 17 256 31 129 15
376 44 548 66 353 44 393 55 417 113 29 68 11 187 -35 236 -27 29 -31 30 -117
30 -49 0 -167 -7 -263 -15 -192 -16 -475 -42 -557 -50 -29 -3 -53 -2 -53 3 0
19 72 74 150 114 102 51 200 144 249 233 42 77 103 258 99 293 -3 28 -21 35
-63 25z m-1267 -770 c95 -150 124 -458 76 -793 -20 -139 -65 -332 -104 -450
-69 -210 -241 -515 -318 -566 l-23 -15 15 30 c30 57 154 377 189 486 48 149
72 248 96 390 26 158 41 297 41 388 0 41 3 95 6 121 5 36 11 46 25 46 16 0 19
8 19 43 -1 87 -38 266 -75 350 -5 12 -3 17 8 17 8 0 28 -21 45 -47z m-1110
-13 c41 -41 62 -108 62 -200 0 -69 -4 -85 -36 -149 -32 -65 -56 -92 -69 -79
-3 2 0 43 6 90 13 107 -1 219 -36 296 -14 30 -25 58 -25 63 0 5 15 9 34 9 25
0 43 -8 64 -30z m179 -2 c35 -39 45 -68 50 -147 7 -92 -12 -167 -57 -229 -33
-46 -56 -56 -46 -19 4 12 9 72 12 132 6 105 1 148 -32 263 -6 19 -3 22 23 22
18 0 38 -9 50 -22z m-1357 -9 c118 -27 264 -134 336 -245 27 -42 84 -166 84
-182 0 -2 -20 14 -45 37 -53 49 -150 97 -212 107 -24 3 -68 3 -98 -1 -46 -5
-63 -13 -96 -45 l-41 -39 3 -79 c3 -66 9 -86 34 -128 17 -27 49 -61 71 -76 23
-15 90 -41 150 -58 131 -38 178 -65 194 -116 17 -50 6 -126 -27 -193 -57 -119
-251 -268 -424 -325 -224 -75 -509 -57 -715 44 -159 78 -229 184 -180 277 24
48 115 123 231 192 175 103 215 151 215 253 -1 104 -55 171 -161 199 -166 44
-444 -154 -541 -386 l-17 -40 0 70 c-1 92 29 234 66 315 136 296 506 459 751
330 l56 -29 42 39 c42 39 89 67 134 81 37 11 138 10 190 -2z m1538 -49 c20
-39 23 -56 19 -130 -3 -85 -20 -133 -62 -185 -15 -19 -16 -13 -10 90 3 73 1
135 -9 185 -7 41 -11 79 -9 83 3 5 15 7 26 5 14 -2 30 -19 45 -48z m336 -362
c-50 -287 -186 -652 -327 -877 -55 -88 -140 -204 -190 -258 -29 -32 -37 -47
-29 -55 6 -6 46 -13 88 -16 71 -4 75 -6 53 -18 -13 -8 -55 -24 -94 -36 -61
-20 -89 -23 -225 -22 -110 1 -193 8 -285 23 -156 27 -347 74 -322 79 10 2 93
-7 185 -19 191 -26 412 -31 480 -11 38 12 49 22 93 90 123 192 186 440 210
824 5 95 7 203 4 240 l-7 66 74 6 c116 10 159 12 230 14 l68 2 -6 -32z m-978
-85 c-19 -162 -98 -399 -178 -533 -39 -66 -175 -210 -197 -210 -5 0 -1 28 10
63 10 34 31 121 45 192 21 102 27 161 27 275 1 80 -2 171 -7 202 l-7 57 83 4
c46 1 116 4 157 5 l73 2 -6 -57z m-707 13 c15 -8 34 -22 41 -31 12 -15 7 -16
-66 -10 -108 9 -115 12 -85 36 28 23 71 25 110 5z m-871 -122 c20 -9 33 -18
27 -20 -9 -3 -123 -27 -190 -41 l-30 -5 26 26 c24 25 86 55 117 56 7 0 29 -7
50 -16z M1655 2855 c-58 -21 -95 -66 -95 -116 0 -33 6 -47 34 -75 20 -20 52
-38 80 -46 l46 -12 0 -63 0 -63 -40 0 c-68 0 -142 20 -226 62 -86 42 -115 44
-134 8 -15 -28 4 -61 58 -97 106 -71 271 -99 412 -69 103 22 193 68 263 136
52 51 58 61 55 91 -3 30 -7 34 -36 37 -30 3 -42 -4 -95 -56 -34 -32 -84 -69
-111 -80 -27 -12 -50 -22 -52 -22 -2 0 -4 28 -4 63 0 62 1 63 36 82 43 23 82
71 90 111 7 38 -25 80 -80 105 -49 22 -144 24 -201 4z"/>
  </g>
</svg>
